<svg width="14" height="14" viewBox="0 0 14 14" fill="none" xmlns="http://www.w3.org/2000/svg">
<g clip-path="url(#clip0_11_528)">
<path d="M7.94482 7.72578L6.89551 7.26297L7.07207 6.86264L7.72105 7.14922L8.0072 6.50012L8.40775 6.67647L7.94482 7.72578Z" fill="white"/>
<path d="M3.36783 9.24988L2.96729 9.07353L3.43021 8.02422L4.47952 8.48703L4.30296 8.88736L3.65398 8.60078L3.36783 9.24988Z" fill="white"/>
<path d="M7.61636 7.48129C7.42923 6.56474 6.62291 5.90646 5.68745 5.90646C4.752 5.90646 3.94568 6.56474 3.75854 7.48129L3.32959 7.39371C3.55774 6.27283 4.5435 5.46736 5.68745 5.46736C6.83141 5.46736 7.81717 6.27283 8.04532 7.39371L7.61636 7.48129Z" fill="currentColor"/>
<path d="M5.68745 10.2812C4.54478 10.2788 3.56052 9.47525 3.32959 8.35629L3.75854 8.26871C3.94568 9.18526 4.752 9.84354 5.68745 9.84354C6.62291 9.84354 7.42923 9.18526 7.61636 8.26871L8.04532 8.35629C7.81439 9.47525 6.83012 10.2788 5.68745 10.2812Z" fill="currentColor"/>
<path d="M2.625 6.125H2.1875V4.8125H3.5V5.25H2.625V6.125Z" fill="currentColor"/>
<path d="M0.875 11.8125H2.1875V12.25H0.875V11.8125Z" fill="currentColor"/>
<path d="M4.8125 0V1.3125H3.5V2.625H2.1875V3.9375H1.3125V10.9375H0V12.6875C0.000747682 13.4121 0.587891 13.9993 1.3125 14H8.75C9.47461 13.9993 10.0618 13.4121 10.0625 12.6875V3.9375H2.625V3.0625H10.9375V10.9375H11.375V2.625H3.9375V1.75H12.25V9.625H12.6875V1.3125H5.25V0.4375H13.5625V8.3125H14V0H4.8125ZM1.3125 13.5625C0.829285 13.5625 0.4375 13.1707 0.4375 12.6875V11.375H7.4375V12.6875C7.43729 13.0105 7.55659 13.3222 7.77235 13.5625H1.3125ZM9.625 4.375V12.6875C9.625 13.1707 9.23322 13.5625 8.75 13.5625C8.26678 13.5625 7.875 13.1707 7.875 12.6875V10.9375H1.75V4.375H9.625Z" fill="currentColor"/>
<path d="M13.5625 9.1875H14V10.5H13.5625V9.1875Z" fill="currentColor"/>
<path d="M12.25 10.5H12.6875V11.8125H12.25V10.5Z" fill="currentColor"/>
<path d="M10.9375 11.8125H11.375V13.125H10.9375V11.8125Z" fill="currentColor"/>
</g>
<defs>
<clipPath id="clip0_11_528">
<rect width="14" height="14" fill="currentColor"/>
</clipPath>
</defs>
</svg>
