<svg width="9" height="12" viewBox="0 0 9 12" fill="none" xmlns="http://www.w3.org/2000/svg">
<path d="M8.78182 2.8193L6.69919 0.736668C6.6406 0.678083 6.56115 0.645157 6.4783 0.645157H0.646929C0.474403 0.645157 0.334534 0.785027 0.334534 0.957552V10.9958C0.334534 11.1684 0.474403 11.3082 0.646929 11.3082H8.56094C8.73346 11.3082 8.87333 11.1684 8.87333 10.9958V3.04019C8.87333 2.95734 8.8404 2.87789 8.78182 2.8193ZM6.7907 1.71174L7.80675 2.72779H6.7907V1.71174ZM0.959324 10.6834V1.26995H6.16591V3.04019C6.16591 3.21271 6.30578 3.35258 6.4783 3.35258H8.24854V10.6834H0.959324Z" fill="currentColor"/>
<path d="M7.31137 9.39223H4.81221C4.63969 9.39223 4.49982 9.5321 4.49982 9.70462C4.49982 9.87715 4.63969 10.017 4.81221 10.017H7.31137C7.4839 10.017 7.62377 9.87715 7.62377 9.70462C7.62377 9.5321 7.4839 9.39223 7.31137 9.39223Z" fill="currentColor"/>
<path d="M7.31137 8.14264H4.81221C4.63969 8.14264 4.49982 8.28251 4.49982 8.45503C4.49982 8.62756 4.63969 8.76743 4.81221 8.76743H7.31137C7.4839 8.76743 7.62377 8.62756 7.62377 8.45503C7.62377 8.28251 7.4839 8.14264 7.31137 8.14264Z" fill="currentColor"/>
<path d="M5.02046 4.81043H5.22873V5.01869C5.22873 5.19122 5.3686 5.33108 5.54112 5.33108C5.71365 5.33108 5.85352 5.19122 5.85352 5.01869V4.81043H6.06178C6.23431 4.81043 6.37417 4.67056 6.37417 4.49803C6.37417 4.32551 6.23431 4.18564 6.06178 4.18564H5.85352V3.97737C5.85352 3.80485 5.71365 3.66498 5.54112 3.66498C5.3686 3.66498 5.22873 3.80485 5.22873 3.97737V4.18564H5.02046C4.84794 4.18564 4.70807 4.32551 4.70807 4.49803C4.70807 4.67056 4.84794 4.81043 5.02046 4.81043Z" fill="currentColor"/>
<path d="M4.7385 6.67863L3.57612 3.59854C3.57504 3.59567 3.57391 3.59284 3.57275 3.58998C3.51339 3.44572 3.37434 3.35258 3.21837 3.35258H3.21795C3.06184 3.35275 2.92278 3.44622 2.86367 3.59073C2.86272 3.59309 2.86178 3.59544 2.86088 3.59779L1.68784 6.67774C1.62643 6.83898 1.70736 7.01946 1.86859 7.08085C1.90519 7.09479 1.94276 7.10139 1.97972 7.10139C2.1056 7.10139 2.22424 7.02473 2.27173 6.9001L2.48724 6.33425H3.94073L4.15395 6.89923C4.21486 7.06065 4.3951 7.14214 4.55652 7.08119C4.71794 7.02029 4.79942 6.84006 4.7385 6.67863ZM2.72522 5.70946L3.21735 4.41735L3.70497 5.70946H2.72522Z" fill="currentColor"/>
</svg>
