<?xml version="1.0" encoding="UTF-8" standalone="no" ?>
<!DOCTYPE svg PUBLIC "-//W3C//DTD SVG 1.1//EN" "http://www.w3.org/Graphics/SVG/1.1/DTD/svg11.dtd">
<svg xmlns="http://www.w3.org/2000/svg" xmlns:xlink="http://www.w3.org/1999/xlink" version="1.1" width="1080" height="1080" viewBox="0 0 1080 1080" xml:space="preserve">
<desc>Created with Fabric.js 5.2.4</desc>
<defs>
</defs>
<g transform="matrix(1 0 0 1 540 540)" id="72468629-4e82-47c9-a9a7-1a62bc5c3dbe"  >
</g>
<g transform="matrix(1 0 0 1 540 540)" id="1b7fcab0-7e6c-4d21-9574-3dcf01ea4cdb"  >
<rect style="stroke: none; stroke-width: 1; stroke-dasharray: none; stroke-linecap: butt; stroke-dashoffset: 0; stroke-linejoin: miter; stroke-miterlimit: 4; fill: currentColor; fill-rule: nonzero; opacity: 1; visibility: hidden;" vector-effect="non-scaling-stroke"  x="-540" y="-540" rx="0" ry="0" width="1080" height="1080" />
</g>
<g transform="matrix(108.76 0 0 108.76 440.4 698)"  >
<g style=""   >
		<g transform="matrix(0.83 0 0 0.83 0.89 -1.08)" clip-path="url(#CLIPPATH_4)"  >
<clipPath id="CLIPPATH_4" >
	<rect transform="matrix(1 0 0 1 -0.01 1.19)" id="clip0_1_344" x="-5.645" y="-5.645" rx="0" ry="0" width="11.29" height="11.29" />
</clipPath>
<path style="stroke: none; stroke-width: 1; stroke-dasharray: none; stroke-linecap: butt; stroke-dashoffset: 0; stroke-linejoin: miter; stroke-miterlimit: 4; fill: currentColor; fill-rule: nonzero; opacity: 1;" vector-effect="non-scaling-stroke"  transform=" translate(-5.89, -4.72)" d="M 9.21864 0.0715027 L 2.55911 0.0715027 C 1.28237 0.0715027 0.243713 1.11016 0.243713 2.3869 L 0.243713 5.96302 C 0.243713 6.98178 0.912577 7.86909 1.88181 8.15309 L 3.00005 9.27142 C 3.06216 9.33344 3.14623 9.36833 3.23401 9.36833 C 3.32169 9.36833 3.40585 9.33344 3.46787 9.27142 L 4.49369 8.24551 L 9.21864 8.24551 C 10.4954 8.24551 11.534 7.20686 11.534 5.93012 L 11.534 2.3869 C 11.534 1.11016 10.4954 0.0715027 9.21864 0.0715027 Z M 10.8725 5.93012 C 10.8725 6.84206 10.1306 7.58397 9.21864 7.58397 L 4.35673 7.58397 C 4.26904 7.58397 4.18489 7.61886 4.12287 7.68088 L 3.23401 8.56974 L 2.28735 7.62308 C 2.24488 7.58061 2.19165 7.55046 2.13333 7.53599 C 1.41028 7.35605 0.905256 6.70924 0.905256 5.96302 L 0.905256 2.3869 C 0.905256 1.47495 1.64717 0.733045 2.55911 0.733045 L 9.21864 0.733045 C 10.1306 0.733045 10.8725 1.47495 10.8725 2.3869 L 10.8725 5.93012 Z" stroke-linecap="round" />
</g>
		<g transform="matrix(0.83 0 0 0.83 0.9 -2.03)" clip-path="url(#CLIPPATH_5)"  >
<clipPath id="CLIPPATH_5" >
	<rect transform="matrix(1 0 0 1 -0.01 2.34)" id="clip0_1_344" x="-5.645" y="-5.645" rx="0" ry="0" width="11.29" height="11.29" />
</clipPath>
<path style="stroke: none; stroke-width: 1; stroke-dasharray: none; stroke-linecap: butt; stroke-dashoffset: 0; stroke-linejoin: miter; stroke-miterlimit: 4; fill: currentColor; fill-rule: nonzero; opacity: 1;" vector-effect="non-scaling-stroke"  transform=" translate(-5.89, -3.57)" d="M 7.98911 3.24312 L 3.78866 3.24312 C 3.60596 3.24312 3.45789 3.39128 3.45789 3.57389 C 3.45789 3.75659 3.60596 3.90466 3.78866 3.90466 L 7.98911 3.90466 C 8.17181 3.90466 8.31988 3.75659 8.31988 3.57389 C 8.31988 3.39128 8.17181 3.24312 7.98911 3.24312 Z" stroke-linecap="round" />
</g>
		<g transform="matrix(0.83 0 0 0.83 0.9 -1.05)" clip-path="url(#CLIPPATH_6)"  >
<clipPath id="CLIPPATH_6" >
	<rect transform="matrix(1 0 0 1 -0.01 1.17)" id="clip0_1_344" x="-5.645" y="-5.645" rx="0" ry="0" width="11.29" height="11.29" />
</clipPath>
<path style="stroke: none; stroke-width: 1; stroke-dasharray: none; stroke-linecap: butt; stroke-dashoffset: 0; stroke-linejoin: miter; stroke-miterlimit: 4; fill: currentColor; fill-rule: nonzero; opacity: 1;" vector-effect="non-scaling-stroke"  transform=" translate(-5.89, -4.74)" d="M 7.98911 4.41235 L 3.78866 4.41235 C 3.60596 4.41235 3.45789 4.56043 3.45789 4.74312 C 3.45789 4.92582 3.60596 5.0739 3.78866 5.0739 L 7.98911 5.0739 C 8.17181 5.0739 8.31988 4.92582 8.31988 4.74312 C 8.31988 4.56043 8.17181 4.41235 7.98911 4.41235 Z" stroke-linecap="round" />
</g>
</g>
</g>
</svg>