<svg width="12" height="12" viewBox="0 0 12 14" fill="none" xmlns="http://www.w3.org/2000/svg">
<g clip-path="url(#clip0_11_526)">
<path d="M9.87685 11.4526C9.38088 11.2983 8.92979 11.026 8.5621 10.6591L0.83503 2.93201C0.721519 2.81839 0.721519 2.6342 0.83503 2.52069L0.878208 2.47751L0.259747 1.86689C0.093627 1.70293 -6.39689e-08 1.4792 -5.37623e-08 1.2457C-4.35558e-08 1.0122 0.093627 0.788475 0.259747 0.624514L0.622892 0.266254C0.964904 -0.0693943 1.51314 -0.0674627 1.85288 0.270458L2.46691 0.884488L2.6903 0.658601C2.96255 0.383288 3.3333 0.227849 3.72042 0.226826C4.10754 0.22569 4.4791 0.37897 4.75293 0.652693L7.08088 2.98076C7.19451 3.09438 7.19451 3.27857 7.08088 3.39219C6.96737 3.5057 6.78319 3.5057 6.66956 3.39208L4.3415 1.06413C4.00846 0.73098 3.47102 0.722458 3.12764 1.04481L6.61002 4.52719L7.24609 5.16315L7.65742 5.5747L10.6519 8.56917C11.0189 8.93675 11.2911 9.38796 11.4456 9.88393L11.987 11.63C12.0189 11.7331 11.9912 11.8454 11.9148 11.9218C11.8385 11.9982 11.7261 12.0259 11.6229 11.9939L9.87685 11.4526ZM1.03149 0.680417L0.668342 1.03856C0.612893 1.09322 0.58176 1.16787 0.58176 1.2457C0.58176 1.32353 0.612893 1.39819 0.668342 1.45284L1.28953 2.06607L2.05764 1.2982L1.44145 0.681781C1.32828 0.569178 1.14545 0.568497 1.03149 0.680417ZM2.71927 1.45932L1.45213 2.72635L4.53921 5.81343L5.80635 4.54628L2.71927 1.45932ZM6.21767 4.95772L4.95053 6.22475L5.56763 6.84185L6.83477 5.5747L6.21767 4.95772ZM7.24609 5.98614L5.97895 7.25328L8.97342 10.2476C9.00376 10.2779 9.03489 10.3073 9.06671 10.3359L10.3289 9.07378C10.3001 9.04208 10.2707 9.01084 10.2406 8.98072L7.24609 5.98614ZM10.8898 10.0563C10.8354 9.8812 10.7628 9.71236 10.673 9.55237L9.5453 10.6801C9.70517 10.7699 9.87413 10.8426 10.0492 10.897L11.2676 11.2748L10.8898 10.0563Z" fill="currentColor"/>
</g>
<defs>
<clipPath id="clip0_11_526">
<rect width="12" height="12" fill="currentColor" transform="matrix(-4.37114e-08 1 1 4.37114e-08 0 0)"/>
</clipPath>
</defs>
</svg>
